<?xml version="1.0" encoding="iso-8859-1"?>
<!-- Generator: Adobe Illustrator 19.0.0, SVG Export Plug-In . SVG Version: 6.00 Build 0)  -->
<svg version="1.1" id="Layer_1" xmlns="http://www.w3.org/2000/svg" xmlns:xlink="http://www.w3.org/1999/xlink" x="0px" y="0px"
	 viewBox="0 0 512 512" style="enable-background:new 0 0 512 512;" xml:space="preserve">
<g>
	<g>
		<path d="M510.22,142.802L443.442,9.246c-2.828-5.656-8.609-9.229-14.933-9.229H83.489c-6.324,0-12.104,3.573-14.933,9.229
			L1.779,142.802c-5.537,11.076,2.524,24.16,14.933,24.16h16.695v328.326c0,9.22,7.475,16.695,16.695,16.695
			c4.088,0,400.88,0,411.798,0c9.22,0,16.695-7.475,16.695-16.695c0-13.717,0-317.406,0-328.326h16.695
			C507.669,166.963,515.768,153.901,510.22,142.802z M339.472,478.594H172.527v-33.389h166.945V478.594z M205.916,411.816V267.13
			h100.167v144.686H205.916z M445.204,333.908H406.25V267.13h38.954V333.908z M445.204,233.741h-55.648
			c-9.22,0-16.695,7.475-16.695,16.695v100.167c0,9.22,7.475,16.695,16.695,16.695h55.648v111.297h-72.343V428.51
			c0-9.22-7.475-16.695-16.695-16.695h-16.695v-161.38c0-9.22-7.475-16.695-16.695-16.695H189.221
			c-9.22,0-16.695,7.475-16.695,16.695v161.38h-16.695c-9.22,0-16.695,7.475-16.695,16.695v50.084H66.795V367.297h55.648
			c9.22,0,16.695-7.475,16.695-16.695V250.435c0-9.22-7.475-16.695-16.695-16.695H66.795v-66.778h378.409V233.741z M66.795,333.908
			V267.13h38.954v66.778H66.795z M43.723,133.574L93.807,33.406h324.385l50.084,100.167
			C463.794,133.574,49.402,133.574,43.723,133.574z"/>
	</g>
</g>
<g>
</g>
<g>
</g>
<g>
</g>
<g>
</g>
<g>
</g>
<g>
</g>
<g>
</g>
<g>
</g>
<g>
</g>
<g>
</g>
<g>
</g>
<g>
</g>
<g>
</g>
<g>
</g>
<g>
</g>
</svg>
