<?xml version="1.0" encoding="iso-8859-1"?>
<!-- Generator: Adobe Illustrator 19.0.0, SVG Export Plug-In . SVG Version: 6.00 Build 0)  -->
<svg version="1.1" id="Layer_1" xmlns="http://www.w3.org/2000/svg" xmlns:xlink="http://www.w3.org/1999/xlink" x="0px" y="0px"
	 viewBox="0 0 512 512" style="enable-background:new 0 0 512 512;" xml:space="preserve">
<g>
	<g>
		<path d="M477.649,10.457H298.682h-24.57L256,0l-18.112,10.457h-24.57H34.351L0.18,127.996h20.742V512H200.27h111.459h179.348
			V127.996h20.743L477.649,10.457z M57.17,40.855h128.067l-33.941,19.597v37.146H40.674L57.17,40.855z M281.331,481.602h-50.663
			v-89.415h50.663V481.602z M460.679,481.602h-148.95V361.789H200.27v119.813H51.32V127.996h130.374V78.001L256,35.1l74.306,42.902
			v49.995h130.374V481.602z M360.704,97.598V60.451l-33.941-19.597H454.83l16.496,56.743H360.704z"/>
	</g>
</g>
<g>
	<g>
		<path d="M255.999,64.162c-26.347,0-47.781,21.434-47.781,47.78c0.001,26.347,21.435,47.781,47.781,47.781
			c26.346,0,47.781-21.434,47.781-47.781C303.78,85.596,282.346,64.162,255.999,64.162z M256,129.323
			c-9.584,0-17.383-7.798-17.383-17.383S246.415,94.559,256,94.559s17.383,7.797,17.383,17.382S265.584,129.323,256,129.323z"/>
	</g>
</g>
<g>
	<g>
		<path d="M127.318,181.177c-30.729,0-55.73,25-55.73,55.73v224.427h111.459V236.907
			C183.047,206.177,158.048,181.177,127.318,181.177z M152.649,430.936h-50.663V236.907c0-13.968,11.364-25.332,25.332-25.332
			c13.968,0,25.332,11.364,25.332,25.332V430.936z"/>
	</g>
</g>
<g>
	<g>
		<path d="M256,181.177c-30.729,0-55.73,25-55.73,55.73v104.615h111.459V236.907C311.729,206.177,286.73,181.177,256,181.177z
			 M281.331,311.123h-50.663v-74.217c0-13.968,11.364-25.332,25.332-25.332s25.332,11.364,25.332,25.332V311.123z"/>
	</g>
</g>
<g>
	<g>
		<path d="M384.682,181.177c-30.729,0-55.73,25-55.73,55.73v224.427h111.459V236.907
			C440.412,206.177,415.411,181.177,384.682,181.177z M410.014,430.936h-50.663V236.907c0-13.968,11.364-25.332,25.332-25.332
			s25.332,11.364,25.332,25.332V430.936z"/>
	</g>
</g>
<g>
</g>
<g>
</g>
<g>
</g>
<g>
</g>
<g>
</g>
<g>
</g>
<g>
</g>
<g>
</g>
<g>
</g>
<g>
</g>
<g>
</g>
<g>
</g>
<g>
</g>
<g>
</g>
<g>
</g>
</svg>
