<?xml version="1.0" encoding="iso-8859-1"?>
<!-- Generator: Adobe Illustrator 19.0.0, SVG Export Plug-In . SVG Version: 6.00 Build 0)  -->
<svg version="1.1" id="Capa_1" xmlns="http://www.w3.org/2000/svg" xmlns:xlink="http://www.w3.org/1999/xlink" x="0px" y="0px"
	 viewBox="0 0 57 57" style="enable-background:new 0 0 57 57;" xml:space="preserve">
<g>
	<g>
		<path d="M47.372,2.068C46.109,0.734,44.379,0,42.501,0H14.499c-1.88,0-3.609,0.734-4.872,2.067C8.365,3.4,7.726,5.168,7.829,7.045
			l2.346,43.019C10.384,53.889,13.67,57,17.5,57h2h18h2c3.83,0,7.117-3.111,7.325-6.936l2.346-43.019
			C49.274,5.17,48.635,3.402,47.372,2.068z M20.5,55v-9h16v9H20.5z M44.829,49.955C44.677,52.737,42.286,55,39.5,55h-1V45
			c0-0.553-0.447-1-1-1h-18c-0.553,0-1,0.447-1,1v10h-1c-2.786,0-5.177-2.263-5.329-5.045L9.825,6.937c0-0.001,0-0.001,0-0.001
			c-0.072-1.323,0.373-2.564,1.254-3.494C11.96,2.512,13.175,2,14.499,2h28.002c1.323,0,2.537,0.513,3.418,1.443
			c0.882,0.931,1.328,2.171,1.256,3.493L44.829,49.955z"/>
		<path d="M41.5,30h-6c-0.553,0-1,0.447-1,1v7c0,0.553,0.447,1,1,1h6c0.553,0,1-0.447,1-1v-7C42.5,30.447,42.053,30,41.5,30z
			 M40.5,37h-4v-5h4V37z"/>
		<path d="M41.5,19h-6c-0.553,0-1,0.448-1,1v7c0,0.552,0.447,1,1,1h6c0.553,0,1-0.448,1-1v-7C42.5,19.448,42.053,19,41.5,19z
			 M40.5,26h-4v-5h4V26z"/>
		<path d="M41.5,8h-6c-0.553,0-1,0.448-1,1v7c0,0.552,0.447,1,1,1h6c0.553,0,1-0.448,1-1V9C42.5,8.448,42.053,8,41.5,8z M40.5,15h-4
			v-5h4V15z"/>
		<path d="M31.5,30h-6c-0.553,0-1,0.447-1,1v7c0,0.553,0.447,1,1,1h6c0.553,0,1-0.447,1-1v-7C32.5,30.447,32.053,30,31.5,30z
			 M30.5,37h-4v-5h4V37z"/>
		<path d="M31.5,19h-6c-0.553,0-1,0.448-1,1v7c0,0.552,0.447,1,1,1h6c0.553,0,1-0.448,1-1v-7C32.5,19.448,32.053,19,31.5,19z
			 M30.5,26h-4v-5h4V26z"/>
		<path d="M31.5,8h-6c-0.553,0-1,0.448-1,1v7c0,0.552,0.447,1,1,1h6c0.553,0,1-0.448,1-1V9C32.5,8.448,32.053,8,31.5,8z M30.5,15h-4
			v-5h4V15z"/>
		<path d="M21.5,30h-6c-0.553,0-1,0.447-1,1v7c0,0.553,0.447,1,1,1h6c0.553,0,1-0.447,1-1v-7C22.5,30.447,22.053,30,21.5,30z
			 M20.5,37h-4v-5h4V37z"/>
		<path d="M21.5,19h-6c-0.553,0-1,0.448-1,1v7c0,0.552,0.447,1,1,1h6c0.553,0,1-0.448,1-1v-7C22.5,19.448,22.053,19,21.5,19z
			 M20.5,26h-4v-5h4V26z"/>
		<path d="M21.5,8h-6c-0.553,0-1,0.448-1,1v7c0,0.552,0.447,1,1,1h6c0.553,0,1-0.448,1-1V9C22.5,8.448,22.053,8,21.5,8z M20.5,15h-4
			v-5h4V15z"/>
		<rect x="30.5" y="48" width="4" height="2"/>
	</g>
</g>
<g>
</g>
<g>
</g>
<g>
</g>
<g>
</g>
<g>
</g>
<g>
</g>
<g>
</g>
<g>
</g>
<g>
</g>
<g>
</g>
<g>
</g>
<g>
</g>
<g>
</g>
<g>
</g>
<g>
</g>
</svg>
