<?xml version="1.0" encoding="iso-8859-1"?>
<!-- Generator: Adobe Illustrator 19.0.0, SVG Export Plug-In . SVG Version: 6.00 Build 0)  -->
<svg version="1.1" id="Layer_1" xmlns="http://www.w3.org/2000/svg" xmlns:xlink="http://www.w3.org/1999/xlink" x="0px" y="0px"
	 viewBox="0 0 512.001 512.001" style="enable-background:new 0 0 512.001 512.001;" xml:space="preserve">
<g>
	<g>
		<path d="M507.111,255.326l-50.763-50.763V94.609c0-9.22-7.475-16.696-16.696-16.696H372.87c-9.22,0-16.696,7.475-16.696,16.696
			v9.78L267.805,16.02c-6.519-6.519-17.091-6.519-23.611,0C238.116,22.099,13.779,246.436,4.89,255.325
			c-6.52,6.519-6.52,17.091,0,23.611c6.519,6.519,17.091,6.519,23.611,0l27.152-27.15v232.389c0,9.22,7.475,16.696,16.696,16.696
			h367.304c9.22,0,16.696-7.475,16.696-16.696V251.785l27.152,27.152c6.52,6.52,17.091,6.52,23.611,0
			C513.631,272.418,513.631,261.846,507.111,255.326z M256.001,51.437c8.9,8.9,146.777,146.777,148.911,148.911H107.09
			L256.001,51.437z M322.783,267.131V233.74h33.391v33.391H322.783z M356.174,300.522v33.391h-33.391v-33.391H356.174z
			 M89.044,233.74h66.783v100.174H89.044V233.74z M122.435,467.479H89.044V367.305h33.391V467.479z M189.218,467.479h-33.391
			v-33.391h33.391V467.479z M189.218,400.696h-33.391v-33.391h33.391V400.696z M189.218,233.74h100.174v100.174H189.218V233.74z
			 M256.001,467.479h-33.391V367.305h33.391V467.479z M322.783,467.479h-33.391v-33.391h33.391V467.479z M422.957,467.479h-66.783
			v-50.087c0-9.22-7.475-16.696-16.696-16.696h-50.087v-33.391h133.565V467.479z M422.957,333.913h-33.391V233.74h33.391V333.913z
			 M422.957,171.172l-33.391-33.391v-26.476h33.391V171.172z"/>
	</g>
</g>
<g>
</g>
<g>
</g>
<g>
</g>
<g>
</g>
<g>
</g>
<g>
</g>
<g>
</g>
<g>
</g>
<g>
</g>
<g>
</g>
<g>
</g>
<g>
</g>
<g>
</g>
<g>
</g>
<g>
</g>
</svg>
